<svg id="Camada_1" data-name="Camada 1" xmlns="http://www.w3.org/2000/svg" viewBox="0 0 1425.36 689.91"><defs><style>.cls-1{fill:#fff;}</style></defs><g id="Camada_1-2" data-name="Camada 1"><path class="cls-1" d="M34.44,78.66C46.35,78.93,53.93,81,65.72,90c8.08,6.21,18.82,20.29,25.91,31.44,19.19,30.12,33.09,63.22,51.49,93.8,17.8,29.56,40.18,58.14,72.36,72.49,34.55,15.36,75.36,12.46,107.13-8.36,60.27-39.5,76.15-118,116.86-170.92,9.24-12,17-20.07,29.33-25.91,7.4-3.5,20.16-4.9,29.29-2.9,24.11,5.31,41.3,31.22,55.57,56.11C587.05,193.93,614.19,276,687,294.32c81.68,20.56,131.32-49.86,164.25-112.78,15.17-29,29.56-62,51.71-84.58,16.71-17,38.57-23.42,57.53-14.42,25.16,11.94,40.67,41.76,54.9,68.2,17.38,32.34,32.71,65.78,55.54,94.78,24.93,31.63,59.78,53.55,101.16,52,43.37-1.54,76.23-28.05,100.71-61.87,23.32-32.2,38.38-69.4,58.43-103.59,16.75-28.47,35.79-52.83,63.65-53.47,42.09-1,42.24-66.69,0-65.71-80.51,1.84-116,77.19-148.7,139.29-14,26.51-30.08,58.36-52.72,72.37-20.62,12.73-43.6,8.59-61.1-8.32-48.1-46.47-60.23-124-111.6-170.92C993.27,20.18,958,8.7,921.1,14.91c-36.27,6.14-63.46,31.14-84.38,60s-35,61.57-52.16,92.52c-13.66,24.74-31.69,53.77-52.79,61.53-25.09,9.23-45.06-1.62-63.13-23.76-19.86-24.33-34.54-58.56-50.13-87.59C585.62,56.37,531-7.38,453.36,18.34,382.13,42,357.72,123.85,322.69,182.11c-17,28.2-36.09,51.58-65.45,49.78-25.84-1.58-45.93-29.37-61.81-57C157.2,108.26,125.32,15,34.44,13c-42.2-1-42.17,64.73,0,65.71Z"/><path class="cls-1" d="M34.44,430.15c11.91.26,19.49,2.29,31.28,11.37,8.08,6.21,18.82,20.3,25.91,31.44,19.19,30.13,33.09,63.23,51.49,93.8,17.8,29.56,40.18,58.15,72.36,72.49,34.55,15.37,75.36,12.47,107.13-8.36,60.27-39.5,76.15-118,116.86-170.92,9.24-12,17-20.07,29.33-25.91,7.4-3.5,20.16-4.89,29.29-2.9,24.11,5.31,41.3,31.22,55.57,56.11,33.39,58.14,60.53,140.2,133.38,158.54C768.72,666.37,818.36,596,851.29,533c15.17-29,29.56-62,51.71-84.57C919.71,431.39,941.57,425,960.53,434c25.16,11.93,40.67,41.76,54.9,68.19C1032.81,534.57,1048.14,568,1071,597c24.93,31.63,59.78,53.55,101.16,52,43.37-1.54,76.23-28,100.71-61.87,23.32-32.19,38.38-69.4,58.43-103.59,16.75-28.47,35.79-52.83,63.65-53.47,42.09-1,42.24-66.69,0-65.71-80.51,1.84-116,77.19-148.7,139.29-14,26.51-30.08,58.37-52.72,72.38-20.62,12.72-43.6,8.58-61.1-8.33-48.1-46.46-60.23-124-111.6-171-27.53-25.15-62.82-36.64-99.7-30.42-36.27,6.14-63.46,31.14-84.38,60s-35,61.57-52.16,92.53c-13.66,24.74-31.69,53.77-52.79,61.53-25.09,9.22-45.06-1.62-63.13-23.77-19.86-24.32-34.54-58.55-50.13-87.58-32.89-61.23-87.49-125-165.15-99.27-71.23,23.61-95.64,105.52-130.67,163.77-17,28.21-36.09,51.59-65.45,49.78-25.84-1.58-45.93-29.37-61.81-57.05-38.23-66.57-70.11-159.81-161-161.88-42.2-.94-42.17,64.77,0,65.75Z"/></g></svg>