<svg id="Camada_1" data-name="Camada 1" xmlns="http://www.w3.org/2000/svg" viewBox="0 0 1425.36 689.91"><defs><style>.cls-1{stroke:#000;stroke-miterlimit:10;stroke-width:0.25px;}</style></defs><g id="Camada_1-2" data-name="Camada 1"><path class="cls-1" d="M30.54,78.66C42.48,78.93,50.09,81,61.91,90c8.1,6.21,18.87,20.29,26,31.44,19.25,30.12,33.18,63.22,51.63,93.8,17.85,29.56,40.29,58.14,72.56,72.49,34.65,15.36,75.58,12.46,107.44-8.36,60.44-39.5,76.36-118,117.18-170.92,9.27-12,17.06-20.07,29.41-25.91,7.42-3.5,20.22-4.9,29.37-2.9,24.18,5.31,41.43,31.22,55.74,56.11C584.69,193.93,611.92,276,685,294.32c81.9,20.56,131.69-49.86,164.71-112.78,15.21-29,29.64-62,51.85-84.58,16.76-17,38.68-23.42,57.69-14.42,25.23,11.94,40.78,41.76,55.06,68.2,17.43,32.34,32.79,65.78,55.69,94.78,25,31.63,60,53.55,101.45,52,43.49-1.54,76.44-28.05,101-61.87,23.38-32.2,38.48-69.4,58.59-103.59,16.8-28.47,35.89-52.83,63.83-53.47,42.21-1,42.36-66.69,0-65.71-80.73,1.84-116.32,77.19-149.12,139.29-14,26.51-30.16,58.36-52.87,72.37-20.67,12.73-43.72,8.59-61.26-8.32-48.24-46.47-60.41-124-111.92-170.92-27.6-25.16-63-36.64-100-30.43-36.37,6.14-63.64,31.14-84.61,60s-35.13,61.57-52.3,92.52C769.06,192.16,751,221.19,729.82,229c-25.15,9.23-45.19-1.62-63.3-23.76-19.92-24.33-34.64-58.56-50.27-87.59-33-61.23-87.74-125-165.61-99.26C379.2,42,354.73,123.85,319.59,182.11c-17,28.2-36.18,51.58-65.63,49.78-25.91-1.58-46.06-29.37-62-57C153.64,108.26,121.67,15,30.54,13c-42.32-1-42.29,64.73,0,65.71Z"/><path class="cls-1" d="M30.54,430.15c11.94.26,19.55,2.29,31.37,11.37,8.1,6.21,18.87,20.3,26,31.44,19.25,30.13,33.18,63.23,51.63,93.8,17.85,29.56,40.29,58.15,72.56,72.49,34.65,15.37,75.58,12.47,107.44-8.36C380,591.39,395.88,512.92,436.7,460c9.27-12,17.06-20.07,29.41-25.91,7.42-3.5,20.22-4.89,29.37-2.9,24.18,5.31,41.43,31.22,55.74,56.11,33.47,58.14,60.7,140.2,133.75,158.54C766.87,666.37,816.66,596,849.68,533c15.21-29,29.64-62,51.85-84.57C918.29,431.39,940.21,425,959.22,434c25.23,11.93,40.78,41.76,55.06,68.19C1031.71,534.57,1047.07,568,1070,597c25,31.63,60,53.55,101.45,52,43.49-1.54,76.44-28,101-61.87,23.38-32.19,38.48-69.4,58.59-103.59,16.8-28.47,35.89-52.83,63.83-53.47,42.21-1,42.36-66.69,0-65.71-80.73,1.84-116.32,77.19-149.12,139.29-14,26.51-30.16,58.37-52.87,72.38-20.67,12.72-43.72,8.58-61.26-8.33-48.24-46.46-60.41-124-111.92-171-27.6-25.15-63-36.64-100-30.42-36.37,6.14-63.64,31.14-84.61,60s-35.13,61.57-52.3,92.53c-13.71,24.74-31.79,53.77-52.95,61.53-25.15,9.22-45.19-1.62-63.3-23.77-19.92-24.32-34.64-58.55-50.27-87.58-33-61.23-87.74-125-165.61-99.27-71.44,23.61-95.91,105.52-131,163.77-17,28.21-36.18,51.59-65.63,49.78-25.91-1.58-46.06-29.37-62-57.05C153.64,459.71,121.67,366.47,30.54,364.4c-42.32-.94-42.29,64.77,0,65.75Z"/></g></svg>